<?xml version="1.0" encoding="UTF-8" standalone="no"?>
<!DOCTYPE svg PUBLIC "-//W3C//DTD SVG 1.1//EN" "http://www.w3.org/Graphics/SVG/1.1/DTD/svg11.dtd">
<svg width="100%" height="100%" viewBox="0 0 1154 580" version="1.1" xmlns="http://www.w3.org/2000/svg" xmlns:xlink="http://www.w3.org/1999/xlink" xml:space="preserve" xmlns:serif="http://www.serif.com/" style="fill-rule:evenodd;clip-rule:evenodd;stroke-linejoin:round;stroke-miterlimit:2;">
    <g transform="matrix(2,0,0,2,0,0)">
        <g>
            <clipPath id="_clip1">
                <rect x="0.5" y="0.5" width="576" height="288"/>
            </clipPath>
            <g clip-path="url(#_clip1)">
                <path d="M601.389,105.011L546.8,101.792L590.905,75.049L601.5,83.298L601.502,82.706L591.065,74.579L590.799,74.564L545.913,101.782C545.825,101.835 545.782,101.939 545.807,102.039C545.832,102.139 545.918,102.21 546.02,102.217L601.386,105.481L601.389,105.011Z" style="fill:rgb(196,196,196);fill-rule:nonzero;"/>
                <path d="M600.828,214.934L572.498,231.192L551.102,225.477L600.872,206.419L600.874,205.915L550.257,225.297C550.164,225.333 550.102,225.427 550.108,225.528C550.113,225.63 550.183,225.716 550.281,225.743L572.47,231.671L572.53,231.679L572.648,231.648L600.825,215.477L600.828,214.934Z" style="fill:rgb(196,196,196);fill-rule:nonzero;"/>
                <path d="M361.119,169.161L363.422,180.295L418.117,162.555L361.119,169.161ZM363.245,180.834L363.127,180.802L363.016,180.647L360.607,169.004L360.646,168.819L360.809,168.724L420.406,161.818C420.533,161.799 420.637,161.883 420.663,162C420.688,162.119 420.62,162.237 420.505,162.274L363.318,180.823L363.245,180.834Z" style="fill:rgb(196,196,196);fill-rule:nonzero;"/>
                <path d="M177.561,304.781L205.323,322.493L224.959,271.479L177.561,304.781ZM205.438,323.079L205.313,323.042L177.013,304.988L176.904,304.794L177.004,304.598L225.32,270.652L225.599,270.659C225.681,270.723 225.711,270.832 225.674,270.928L205.658,322.928L205.512,323.068L205.438,323.079Z" style="fill:rgb(196,196,196);fill-rule:nonzero;"/>
                <path d="M205.778,322.615L290.55,323.967L225.558,271.229L205.778,322.615ZM291.224,324.447L291.221,324.447L205.435,323.079L205.244,322.976L205.22,322.76L225.236,270.76L225.394,270.617L225.603,270.662L291.373,324.031C291.45,324.093 291.479,324.199 291.445,324.292C291.411,324.386 291.323,324.448 291.224,324.447Z" style="fill:rgb(196,196,196);fill-rule:nonzero;"/>
                <path d="M420.887,161.98L519.039,201.388L470.579,121.025L420.887,161.98ZM519.599,202.101L519.513,202.084L420.346,162.269L420.201,162.086L420.284,161.87L470.49,120.49L470.678,120.439L470.839,120.549L519.802,201.745L519.781,202.019L519.599,202.101Z" style="fill:rgb(196,196,196);fill-rule:nonzero;"/>
                <path d="M470.976,120.776L519.289,200.895L511.57,102.623L470.976,120.776ZM519.599,202.101L519.401,201.988L470.438,120.792L470.415,120.601L470.543,120.457L511.682,102.059L511.897,102.071L512.011,102.254L519.835,201.848C519.844,201.957 519.776,202.057 519.672,202.09L519.599,202.101Z" style="fill:rgb(196,196,196);fill-rule:nonzero;"/>
                <path d="M512.031,102.505L519.727,200.474L545.729,102.22L512.031,102.505ZM519.599,202.101L519.581,202.1C519.466,202.09 519.375,201.999 519.367,201.885L511.543,102.292L511.605,102.114L511.776,102.038L546.033,101.748L546.22,101.838L546.261,102.042L519.828,201.926C519.801,202.031 519.706,202.102 519.599,202.101Z" style="fill:rgb(196,196,196);fill-rule:nonzero;"/>
                <path d="M600.874,205.916L550.38,225.25L520.208,202.037L600.938,193.386L600.94,192.914L519.577,201.633C519.481,201.644 519.401,201.71 519.375,201.803C519.349,201.895 519.382,201.994 519.458,202.052L550.199,225.702L550.34,225.75L550.426,225.735L600.872,206.418L600.874,205.916Z" style="fill:rgb(196,196,196);fill-rule:nonzero;"/>
                <path d="M545.659,70.197L512.367,102.033L545.798,101.75L545.659,70.197ZM511.776,102.507C511.681,102.507 511.596,102.449 511.56,102.361L511.616,102.104L545.729,69.481L545.983,69.435C546.069,69.471 546.125,69.556 546.125,69.649L546.269,101.981C546.27,102.111 546.166,102.216 546.037,102.217L511.78,102.507L511.776,102.507Z" style="fill:rgb(196,196,196);fill-rule:nonzero;"/>
                <path d="M601.708,42.373L546.125,69.276L545.963,-79.218L601.955,-5.837L601.958,-6.606L545.915,-80.056C545.854,-80.136 545.748,-80.168 545.653,-80.136C545.558,-80.104 545.494,-80.014 545.494,-79.914L545.657,69.651L545.766,69.849L545.89,69.885L545.993,69.862L601.706,42.896L601.708,42.373Z" style="fill:rgb(196,196,196);fill-rule:nonzero;"/>
                <path d="M546.126,69.914L546.267,101.567L590.212,74.92L546.126,69.914ZM546.033,102.217L545.919,102.187L545.799,101.983L545.657,69.651L545.734,69.476L545.917,69.417L590.948,74.531C591.047,74.543 591.129,74.616 591.151,74.714C591.172,74.812 591.128,74.913 591.043,74.965L546.156,102.183L546.033,102.217Z" style="fill:rgb(196,196,196);fill-rule:nonzero;"/>
                <path d="M601.61,61.695L590.823,74.517L546.722,69.508L601.706,42.895L601.708,42.373L545.789,69.439C545.695,69.485 545.642,69.587 545.66,69.69C545.677,69.793 545.76,69.872 545.865,69.884L590.895,74.998L590.92,74.999L591.101,74.916L601.606,62.429L601.61,61.695Z" style="fill:rgb(196,196,196);fill-rule:nonzero;"/>
                <path d="M291.159,324.438L343.284,339.652L344.988,339.661L291.855,324.152L386.107,275.635L363.336,339.754L363.833,339.757L386.748,275.233C386.78,275.143 386.753,275.042 386.681,274.979L386.418,274.946L291.117,324.003C291.032,324.048 290.982,324.139 290.991,324.235C291,324.331 291.067,324.411 291.159,324.438Z" style="fill:rgb(196,196,196);fill-rule:nonzero;"/>
                <path d="M363.833,339.757L386.66,275.48L448.465,305.472L372.33,339.8L373.458,339.806L449.116,305.694C449.199,305.656 449.252,305.574 449.253,305.483C449.255,305.392 449.203,305.308 449.122,305.268L386.628,274.944L386.437,274.938L386.305,275.076L363.337,339.754L363.833,339.757Z" style="fill:rgb(196,196,196);fill-rule:nonzero;"/>
                <path d="M364.642,181.357L390.653,200.95L405.932,196.384L364.642,181.357ZM390.606,201.443L390.465,201.396L363.105,180.787C363.012,180.717 362.984,180.59 363.04,180.487C363.095,180.385 363.218,180.339 363.327,180.379L406.759,196.185C406.854,196.219 406.917,196.312 406.914,196.412C406.911,196.513 406.843,196.602 406.747,196.63L390.674,201.433L390.606,201.443Z" style="fill:rgb(196,196,196);fill-rule:nonzero;"/>
                <path d="M363.967,180.612L406.545,196.107L420.029,162.429L363.967,180.612ZM406.678,196.64L406.598,196.626L363.166,180.82C363.072,180.786 363.009,180.695 363.011,180.596C363.013,180.495 363.078,180.407 363.173,180.376L420.361,161.828L420.604,161.89L420.651,162.138L406.897,196.493C406.86,196.584 406.771,196.641 406.678,196.64Z" style="fill:rgb(196,196,196);fill-rule:nonzero;"/>
                <path d="M390.832,201.386L386.893,272.777L406.349,196.749L390.832,201.386ZM386.525,275.39L386.491,275.387C386.372,275.369 386.285,275.262 386.292,275.142L390.373,201.195C390.377,201.097 390.445,201.012 390.54,200.983L406.612,196.181L406.841,196.236L406.907,196.463L386.753,275.213C386.727,275.318 386.631,275.39 386.525,275.39Z" style="fill:rgb(196,196,196);fill-rule:nonzero;"/>
                <path d="M407.019,196.187L518.219,201.565L420.563,162.356L407.019,196.187ZM519.599,202.101L519.59,202.101L406.667,196.64L406.482,196.532L406.461,196.318L420.215,161.963L420.34,161.835L420.52,161.833L519.689,201.649C519.794,201.691 519.854,201.805 519.831,201.917C519.807,202.025 519.71,202.102 519.599,202.101Z" style="fill:rgb(196,196,196);fill-rule:nonzero;"/>
                <path d="M409.161,72.976L420.611,161.6L470.264,120.676L409.161,72.976ZM420.432,162.285L420.346,162.269L420.201,162.081L408.623,72.47C408.61,72.375 408.656,72.283 408.739,72.236L409,72.255L470.783,120.486L470.874,120.668L470.789,120.852L420.583,162.231L420.432,162.285Z" style="fill:rgb(196,196,196);fill-rule:nonzero;"/>
                <path d="M409.306,72.495L470.344,120.144L462.478,48.638L409.306,72.495ZM470.637,120.905L470.495,120.855L408.71,72.624L408.622,72.412L408.758,72.226L462.58,48.078L462.792,48.088L462.91,48.266L470.873,120.645C470.882,120.739 470.835,120.83 470.753,120.876L470.637,120.905Z" style="fill:rgb(196,196,196);fill-rule:nonzero;"/>
                <path d="M437.274,-58.189L462.776,47.706L545.23,-79.576L437.274,-58.189ZM462.674,48.526L462.636,48.523C462.543,48.507 462.47,48.437 462.448,48.346L436.76,-58.317L436.791,-58.498L436.943,-58.602L545.683,-80.144C545.774,-80.162 545.871,-80.124 545.922,-80.045L545.925,-79.786L462.873,48.419L462.674,48.526Z" style="fill:rgb(196,196,196);fill-rule:nonzero;"/>
                <path d="M462.988,48.983L470.836,120.325L511.385,102.191L462.988,48.983ZM470.637,120.905L470.522,120.875L470.406,120.697L462.443,48.317C462.431,48.216 462.487,48.12 462.58,48.078C462.671,48.036 462.781,48.059 462.849,48.134L511.951,102.115L512.007,102.321L511.874,102.487L470.734,120.885L470.637,120.905Z" style="fill:rgb(196,196,196);fill-rule:nonzero;"/>
                <path d="M463.377,48.714L511.79,101.937L545.423,69.773L463.377,48.714ZM511.776,102.507L511.769,102.507L511.604,102.431L462.502,48.449L462.475,48.17C462.529,48.082 462.632,48.038 462.734,48.064L545.95,69.423L546.118,69.591L546.053,69.82L511.94,102.442L511.776,102.507Z" style="fill:rgb(196,196,196);fill-rule:nonzero;"/>
                <path d="M463.05,48.145L545.656,69.348L545.495,-79.121L463.05,48.145ZM545.89,69.885L545.833,69.878L462.618,48.519L462.458,48.377L462.479,48.164L545.532,-80.041C545.587,-80.129 545.693,-80.168 545.794,-80.139C545.894,-80.109 545.963,-80.018 545.963,-79.914L546.125,69.65L546.035,69.836L545.89,69.885Z" style="fill:rgb(196,196,196);fill-rule:nonzero;"/>
                <path d="M406.823,196.79L386.845,274.857L491.574,255.331L406.823,196.79ZM386.525,275.39L386.355,275.315L386.298,275.097L406.452,196.348L406.597,196.186L406.812,196.212L492.304,255.265C492.382,255.318 492.419,255.414 492.4,255.507C492.38,255.6 492.307,255.671 492.213,255.688L386.569,275.386L386.525,275.39Z" style="fill:rgb(196,196,196);fill-rule:nonzero;"/>
                <path d="M387.27,275.255L448.958,305.19L491.556,255.811L387.27,275.255ZM449.018,305.714L448.917,305.691L386.424,275.366C386.333,275.322 386.28,275.224 386.293,275.124C386.307,275.023 386.383,274.943 386.484,274.924L492.127,255.227C492.226,255.209 492.325,255.254 492.375,255.341L492.348,255.611L449.197,305.632L449.018,305.714Z" style="fill:rgb(196,196,196);fill-rule:nonzero;"/>
                <path d="M407.489,196.68L492.084,255.113L519.227,202.083L407.489,196.68ZM492.169,255.692L492.038,255.651L406.545,196.599C406.459,196.539 406.423,196.429 406.457,196.33C406.49,196.231 406.591,196.17 406.69,196.171L519.612,201.632L519.805,201.749L519.81,201.974L492.379,255.565L492.228,255.686L492.169,255.692Z" style="fill:rgb(196,196,196);fill-rule:nonzero;"/>
                <path d="M449.42,305.373L478.114,315.554L491.73,256.328L449.42,305.373ZM478.283,316.098L478.206,316.084L448.94,305.701L448.792,305.54L448.841,305.327L491.994,255.305C492.063,255.223 492.18,255.201 492.277,255.249C492.374,255.297 492.423,255.405 492.4,255.51L478.512,315.916L478.397,316.069L478.283,316.098Z" style="fill:rgb(196,196,196);fill-rule:nonzero;"/>
                <path d="M492.306,255.915L478.584,315.601L547.835,309.519L492.306,255.915ZM478.283,316.098L478.107,316.017L478.055,315.811L491.942,255.405L492.104,255.233L492.333,255.289L548.532,309.54L548.59,309.787C548.56,309.874 548.481,309.934 548.389,309.942L478.304,316.097L478.283,316.098Z" style="fill:rgb(196,196,196);fill-rule:nonzero;"/>
                <path d="M519.682,202.225L492.712,254.915L549.906,225.477L519.682,202.225ZM492.169,255.692L492.004,255.624C491.933,255.552 491.916,255.442 491.961,255.351L519.393,201.76L519.55,201.638L519.745,201.681L550.485,225.33L550.576,225.537L550.45,225.725L492.278,255.667L492.169,255.692Z" style="fill:rgb(196,196,196);fill-rule:nonzero;"/>
                <path d="M492.623,255.568L548.257,309.275L572.177,231.795L492.623,255.568ZM548.368,309.943L548.206,309.876L492.007,255.626L491.943,255.402L492.104,255.233L572.464,231.22L572.698,231.279L572.755,231.514L548.593,309.778L548.427,309.935L548.368,309.943Z" style="fill:rgb(196,196,196);fill-rule:nonzero;"/>
                <path d="M550.369,225.766L494.528,254.509L571.669,231.457L550.369,225.766ZM492.169,255.692C492.077,255.692 491.99,255.636 491.953,255.545C491.908,255.433 491.956,255.305 492.063,255.249L550.234,225.307L550.403,225.29L572.591,231.218C572.693,231.245 572.764,231.336 572.766,231.441C572.767,231.546 572.699,231.639 572.598,231.669L492.238,255.683L492.169,255.692Z" style="fill:rgb(196,196,196);fill-rule:nonzero;"/>
                <path d="M211.605,246.673L146.402,284.855L225.089,270.671L211.605,246.673ZM145.142,285.555C145.045,285.555 144.957,285.495 144.923,285.402C144.883,285.295 144.926,285.175 145.024,285.118L211.574,246.148L211.753,246.124L211.897,246.235L225.659,270.729L225.667,270.944L225.496,271.074L145.184,285.551L145.142,285.555Z" style="fill:rgb(196,196,196);fill-rule:nonzero;"/>
                <path d="M212.055,246.518L225.493,270.432L252.171,238.546L212.055,246.518ZM225.454,271.078L225.433,271.077L225.25,270.958L211.488,246.465L211.479,246.252L211.646,246.12L252.733,237.956C252.829,237.937 252.93,237.98 252.98,238.066L252.958,238.337L225.635,270.995L225.454,271.078Z" style="fill:rgb(196,196,196);fill-rule:nonzero;"/>
                <path d="M341.715,106.059L341.658,106.051C341.532,106.019 341.457,105.891 341.489,105.765L354.396,56.055C354.428,55.93 354.555,55.853 354.682,55.887C354.807,55.919 354.883,56.047 354.85,56.172L341.943,105.883C341.916,105.989 341.82,106.059 341.715,106.059Z" style="fill:rgb(196,196,196);fill-rule:nonzero;"/>
                <path d="M354.789,56.409L342.073,105.385L408.22,72.494L354.789,56.409ZM341.715,106.059L341.568,106.006L341.489,105.765L354.396,56.055L354.508,55.909L354.69,55.889L408.922,72.215C409.014,72.243 409.081,72.324 409.088,72.42C409.097,72.516 409.045,72.607 408.959,72.65L341.821,106.034L341.715,106.059Z" style="fill:rgb(196,196,196);fill-rule:nonzero;"/>
                <path d="M342.141,106.416L361.004,168.701L419.801,161.888L342.141,106.416ZM360.835,169.191C360.734,169.191 360.642,169.125 360.612,169.025L341.492,105.892C341.463,105.796 341.498,105.692 341.58,105.634L341.853,105.633L420.569,161.86C420.648,161.916 420.684,162.015 420.66,162.109C420.636,162.204 420.556,162.272 420.46,162.284L360.864,169.19L360.835,169.191Z" style="fill:rgb(196,196,196);fill-rule:nonzero;"/>
                <path d="M342.171,105.86L420.131,161.547L408.665,72.797L342.171,105.86ZM420.432,162.285L420.296,162.242L341.58,106.015L341.482,105.806L341.612,105.614L408.75,72.23L408.965,72.233L409.087,72.41L420.666,162.021C420.678,162.113 420.633,162.204 420.553,162.252L420.432,162.285Z" style="fill:rgb(196,196,196);fill-rule:nonzero;"/>
                <path d="M360.7,169.451L321.819,211.42L362.986,180.501L360.7,169.451ZM319.874,213.41L319.701,213.333C319.619,213.242 319.62,213.104 319.703,213.016L360.665,168.797L360.9,168.731L361.067,168.91L363.476,180.552L363.387,180.787L320.016,213.363L319.874,213.41Z" style="fill:rgb(196,196,196);fill-rule:nonzero;"/>
                <path d="M363.246,180.893L320.788,212.782L390.031,201.068L363.246,180.893ZM319.874,213.41C319.781,213.409 319.696,213.355 319.659,213.268C319.616,213.168 319.647,213.053 319.733,212.987L363.105,180.412L363.387,180.412L390.749,201.021C390.823,201.077 390.857,201.173 390.834,201.264C390.813,201.355 390.738,201.424 390.646,201.439L319.914,213.406L319.874,213.41Z" style="fill:rgb(196,196,196);fill-rule:nonzero;"/>
                <path d="M320.382,213.327L386.32,274.642L390.357,201.489L320.382,213.327ZM386.525,275.39L386.367,275.327L319.715,213.347L319.65,213.108L319.835,212.944L390.568,200.977L390.763,201.033L390.841,201.221L386.76,275.168C386.755,275.259 386.699,275.338 386.614,275.373L386.525,275.39Z" style="fill:rgb(196,196,196);fill-rule:nonzero;"/>
                <path d="M601.158,150.256L519.981,201.351L546.192,102.304L601.284,125.577L601.287,125.069L546.125,101.766L545.931,101.772L545.807,101.923L519.375,201.807C519.349,201.899 519.385,201.999 519.461,202.056L519.599,202.101L519.727,202.065L601.155,150.812L601.158,150.256Z" style="fill:rgb(196,196,196);fill-rule:nonzero;"/>
                <path d="M600.94,192.914L520.584,201.525L601.155,150.813L601.158,150.256L519.476,201.668C519.383,201.726 519.344,201.84 519.379,201.943C519.413,202.038 519.5,202.101 519.599,202.101L519.625,202.1L600.938,193.386L600.94,192.914Z" style="fill:rgb(196,196,196);fill-rule:nonzero;"/>
                <path d="M601.287,125.069L547.382,102.297L601.386,105.481L601.389,105.011L546.048,101.749C545.92,101.738 545.832,101.818 545.806,101.929C545.78,102.041 545.837,102.154 545.943,102.199L601.284,125.577L601.287,125.069Z" style="fill:rgb(196,196,196);fill-rule:nonzero;"/>
                <path d="M252.889,238.42L226.237,270.275L305.568,238.235L252.889,238.42ZM225.454,271.078L225.265,270.981L225.275,270.693L252.599,238.035L252.778,237.952L306.786,237.762L306.788,237.762C306.899,237.763 306.996,237.842 307.017,237.952C307.038,238.062 306.979,238.172 306.875,238.214L225.542,271.062L225.454,271.078Z" style="fill:rgb(196,196,196);fill-rule:nonzero;"/>
                <path d="M225.912,270.912L291.064,323.78L306.48,238.374L225.912,270.912ZM291.224,324.447L291.077,324.395L225.307,271.026L225.223,270.809L225.367,270.626L306.699,237.779L306.935,237.814L307.017,238.038L291.456,324.254L291.307,324.432L291.224,324.447Z" style="fill:rgb(196,196,196);fill-rule:nonzero;"/>
                <path d="M319.38,213.61L254.093,237.947L306.645,237.763L319.38,213.61ZM252.778,238.421C252.665,238.42 252.568,238.339 252.548,238.228C252.528,238.116 252.59,238.006 252.697,237.966L319.792,212.955C319.884,212.922 319.987,212.947 320.051,213.02L320.082,213.284L306.994,238.106L306.787,238.231L252.779,238.421L252.778,238.421Z" style="fill:rgb(196,196,196);fill-rule:nonzero;"/>
                <path d="M306.963,238.338L291.54,323.786L385.993,275.166L306.963,238.338ZM291.224,324.447L291.085,324.401L290.994,324.171L306.556,237.955L306.679,237.789L306.886,237.784L386.625,274.942L386.761,275.15L386.634,275.363L291.333,324.421L291.224,324.447Z" style="fill:rgb(196,196,196);fill-rule:nonzero;"/>
                <path d="M307.109,237.888L385.278,274.314L319.939,213.556L307.109,237.888ZM386.525,275.39L386.427,275.368L306.688,238.209L306.564,238.071L306.579,237.887L319.667,213.066L319.835,212.944L320.035,213.003L386.686,274.983C386.771,275.062 386.786,275.19 386.721,275.286L386.525,275.39Z" style="fill:rgb(196,196,196);fill-rule:nonzero;"/>
                <path d="M600.691,241.683L573.082,231.399L600.825,215.477L600.828,214.934L572.415,231.241C572.335,231.286 572.29,231.373 572.297,231.464C572.304,231.554 572.364,231.632 572.45,231.665L600.689,242.183L600.691,241.683Z" style="fill:rgb(196,196,196);fill-rule:nonzero;"/>
                <path d="M354.622,56.348L354.428,56.244C354.355,56.137 354.385,55.991 354.493,55.918L408.684,19.677C408.791,19.604 408.937,19.633 409.009,19.741C409.082,19.849 409.052,19.995 408.945,20.066L354.753,56.309L354.622,56.348Z" style="fill:rgb(196,196,196);fill-rule:nonzero;"/>
                <path d="M355.167,56.032L408.62,72.124L408.58,20.311L355.167,56.032ZM408.854,72.674L408.788,72.665L354.555,56.338C354.468,56.312 354.404,56.238 354.391,56.148L354.493,55.918L408.684,19.677L408.924,19.665L409.049,19.872L409.089,72.439L408.995,72.628L408.854,72.674Z" style="fill:rgb(196,196,196);fill-rule:nonzero;"/>
                <path d="M409.049,20.261L409.089,72.078L462.14,48.274L409.049,20.261ZM408.854,72.674L408.727,72.637L408.621,72.44L408.58,19.872L408.693,19.671L408.924,19.664L462.786,48.084L462.911,48.299L462.772,48.505L408.951,72.654L408.854,72.674Z" style="fill:rgb(196,196,196);fill-rule:nonzero;"/>
                <path d="M409.104,19.759L462.326,47.841L436.944,-57.555L409.104,19.759ZM462.674,48.526L462.566,48.499L408.705,20.079C408.601,20.024 408.553,19.902 408.593,19.792L436.767,-58.451C436.802,-58.549 436.901,-58.62 437,-58.606C437.104,-58.6 437.192,-58.527 437.216,-58.426L462.904,48.237L462.82,48.477L462.674,48.526Z" style="fill:rgb(196,196,196);fill-rule:nonzero;"/>
                <path d="M600.525,274.216L548.79,309.141L572.623,231.944L600.557,267.889L600.561,267.129L572.716,231.3L572.489,231.214L572.307,231.375L548.145,309.639C548.116,309.734 548.149,309.837 548.229,309.897L548.368,309.943L548.5,309.903L600.522,274.784L600.525,274.216Z" style="fill:rgb(196,196,196);fill-rule:nonzero;"/>
                <path d="M600.28,322.362L548.937,309.608L600.522,274.784L600.525,274.216L548.238,309.513C548.161,309.566 548.122,309.658 548.138,309.75C548.155,309.84 548.223,309.914 548.312,309.936L600.277,322.845L600.28,322.362Z" style="fill:rgb(196,196,196);fill-rule:nonzero;"/>
                <path d="M600.561,267.129L573.223,231.953L600.689,242.183L600.691,241.683L572.613,231.225C572.515,231.188 572.404,231.221 572.342,231.306L572.345,231.588L600.557,267.889L600.561,267.129Z" style="fill:rgb(196,196,196);fill-rule:nonzero;"/>
                <path d="M470.655,117.563C468.938,117.554 467.539,118.938 467.53,120.655C467.521,122.372 468.906,123.771 470.623,123.779C472.339,123.788 473.739,122.403 473.748,120.687C473.756,118.97 472.372,117.571 470.655,117.563Z" style="fill:rgb(196,196,196);fill-rule:nonzero;"/>
                <path d="M470.66,116.624C468.428,116.612 466.603,118.418 466.591,120.65C466.581,122.882 468.386,124.707 470.618,124.718C472.85,124.729 474.674,122.923 474.686,120.691C474.698,118.46 472.891,116.635 470.66,116.624ZM470.655,117.563C472.372,117.571 473.756,118.97 473.748,120.687C473.739,122.403 472.339,123.788 470.623,123.779C468.906,123.771 467.521,122.372 467.53,120.655C467.539,118.938 468.938,117.554 470.655,117.563Z" style="fill:rgb(34,30,31);fill-rule:nonzero;"/>
                <path d="M513.109,102.279C513.112,101.544 512.518,100.945 511.785,100.941C511.049,100.938 510.45,101.531 510.447,102.266C510.443,103.001 511.036,103.6 511.771,103.604C512.505,103.607 513.104,103.015 513.109,102.279Z" style="fill:rgb(196,196,196);fill-rule:nonzero;"/>
                <path d="M511.79,100.003C510.538,99.997 509.514,101.009 509.507,102.261C509.501,103.513 510.514,104.536 511.766,104.542C513.018,104.549 514.041,103.536 514.047,102.284C514.052,101.033 513.041,100.01 511.79,100.003ZM511.785,100.941C512.518,100.945 513.112,101.544 513.109,102.279C513.104,103.015 512.505,103.607 511.771,103.604C511.036,103.6 510.443,103.001 510.447,102.266C510.45,101.531 511.049,100.938 511.785,100.941Z" style="fill:rgb(34,30,31);fill-rule:nonzero;"/>
                <path d="M545.875,72.713C547.567,72.722 548.945,71.357 548.954,69.666C548.962,67.974 547.598,66.596 545.907,66.587C544.214,66.579 542.836,67.943 542.828,69.635C542.819,71.326 544.183,72.705 545.875,72.713Z" style="fill:rgb(196,196,196);fill-rule:nonzero;"/>
                <path d="M545.911,65.649C543.705,65.638 541.901,67.423 541.889,69.63C541.878,71.836 543.664,73.641 545.871,73.652C548.077,73.663 549.881,71.877 549.892,69.671C549.904,67.464 548.118,65.66 545.911,65.649ZM545.907,66.587C547.598,66.596 548.962,67.974 548.954,69.666C548.945,71.357 547.567,72.722 545.875,72.713C544.183,72.705 542.819,71.326 542.828,69.635C542.836,67.943 544.214,66.579 545.907,66.587Z" style="fill:rgb(34,30,31);fill-rule:nonzero;"/>
                <path d="M406.693,193.638C405.165,193.63 403.919,194.863 403.912,196.391C403.904,197.92 405.136,199.165 406.665,199.173C408.193,199.181 409.439,197.948 409.447,196.419C409.455,194.891 408.221,193.646 406.693,193.638Z" style="fill:rgb(196,196,196);fill-rule:nonzero;"/>
                <path d="M406.698,192.699C404.655,192.689 402.983,194.343 402.973,196.387C402.962,198.43 404.617,200.101 406.66,200.111C408.704,200.122 410.375,198.468 410.385,196.424C410.396,194.381 408.742,192.71 406.698,192.699ZM406.693,193.638C408.221,193.646 409.455,194.891 409.447,196.419C409.439,197.948 408.193,199.181 406.665,199.173C405.136,199.165 403.904,197.92 403.912,196.391C403.919,194.863 405.165,193.63 406.693,193.638Z" style="fill:rgb(34,30,31);fill-rule:nonzero;"/>
                <path d="M492.179,253.732C491.226,253.728 490.45,254.496 490.445,255.449C490.44,256.401 491.208,257.179 492.162,257.184C493.115,257.188 493.891,256.419 493.896,255.466C493.901,254.514 493.132,253.737 492.179,253.732Z" style="fill:rgb(196,196,196);fill-rule:nonzero;"/>
                <path d="M492.184,252.793C490.715,252.786 489.514,253.975 489.506,255.444C489.5,256.913 490.688,258.115 492.157,258.123C493.625,258.129 494.827,256.94 494.834,255.471C494.842,254.002 493.653,252.801 492.184,252.793ZM492.179,253.732C493.132,253.737 493.901,254.514 493.896,255.466C493.891,256.419 493.115,257.188 492.162,257.184C491.208,257.179 490.441,256.401 490.445,255.449C490.45,254.496 491.226,253.728 492.179,253.732Z" style="fill:rgb(34,30,31);fill-rule:nonzero;"/>
                <path d="M550.359,222.176C548.514,222.167 547.011,223.654 547.001,225.499C546.992,227.344 548.48,228.847 550.325,228.856C552.169,228.866 553.672,227.378 553.682,225.533C553.691,223.688 552.204,222.186 550.359,222.176Z" style="fill:rgb(196,196,196);fill-rule:nonzero;"/>
                <path d="M550.364,221.237C548.004,221.225 546.075,223.135 546.063,225.494C546.051,227.854 547.96,229.783 550.32,229.795C552.679,229.807 554.609,227.897 554.621,225.538C554.632,223.179 552.723,221.25 550.364,221.237ZM550.359,222.176C552.204,222.186 553.691,223.688 553.682,225.533C553.672,227.378 552.169,228.866 550.325,228.856C548.48,228.847 546.992,227.344 547.001,225.499C547.011,223.654 548.514,222.167 550.359,222.176Z" style="fill:rgb(34,30,31);fill-rule:nonzero;"/>
                <path d="M145.15,283.947C144.391,283.943 143.773,284.555 143.769,285.313C143.765,286.072 144.377,286.69 145.136,286.694C145.895,286.698 146.513,286.086 146.517,285.328C146.521,284.569 145.909,283.951 145.15,283.947Z" style="fill:rgb(196,196,196);fill-rule:nonzero;"/>
                <path d="M145.155,283.008C143.88,283.001 142.837,284.034 142.831,285.309C142.824,286.583 143.856,287.626 145.131,287.633C146.406,287.64 147.449,286.607 147.456,285.332C147.462,284.057 146.43,283.015 145.155,283.008ZM145.15,283.947C145.909,283.951 146.521,284.569 146.517,285.328C146.513,286.086 145.895,286.698 145.136,286.694C144.377,286.69 143.765,286.072 143.769,285.313C143.773,284.555 144.391,283.943 145.15,283.947Z" style="fill:rgb(34,30,31);fill-rule:nonzero;"/>
                <path d="M211.704,244.128C210.477,244.122 209.477,245.112 209.471,246.339C209.464,247.566 210.454,248.566 211.681,248.572C212.908,248.578 213.908,247.588 213.914,246.362C213.92,245.135 212.931,244.135 211.704,244.128Z" style="fill:rgb(196,196,196);fill-rule:nonzero;"/>
                <path d="M211.708,243.19C209.966,243.181 208.541,244.591 208.532,246.334C208.523,248.077 209.934,249.501 211.676,249.511C213.419,249.52 214.844,248.109 214.853,246.366C214.862,244.624 213.451,243.199 211.708,243.19ZM211.704,244.128C212.931,244.135 213.92,245.135 213.914,246.362C213.908,247.588 212.908,248.578 211.681,248.572C210.454,248.566 209.464,247.566 209.471,246.339C209.477,245.112 210.477,244.122 211.704,244.128Z" style="fill:rgb(34,30,31);fill-rule:nonzero;"/>
                <path d="M341.723,104.483C340.982,104.479 340.379,105.077 340.375,105.817C340.371,106.558 340.969,107.162 341.709,107.166C342.45,107.169 343.054,106.572 343.058,105.831C343.062,105.09 342.464,104.487 341.723,104.483Z" style="fill:rgb(196,196,196);fill-rule:nonzero;"/>
                <path d="M341.728,103.544C340.471,103.538 339.443,104.556 339.437,105.813C339.43,107.07 340.448,108.098 341.705,108.104C342.962,108.11 343.99,107.093 343.997,105.836C344.003,104.579 342.985,103.551 341.728,103.544ZM341.723,104.483C342.464,104.487 343.062,105.09 343.058,105.831C343.054,106.572 342.45,107.169 341.709,107.166C340.969,107.162 340.371,106.558 340.375,105.817C340.379,105.077 340.982,104.479 341.723,104.483Z" style="fill:rgb(34,30,31);fill-rule:nonzero;"/>
                <path d="M420.449,158.993C418.76,158.984 417.384,160.346 417.375,162.035C417.367,163.724 418.729,165.1 420.417,165.108C422.106,165.117 423.482,163.755 423.491,162.066C423.5,160.377 422.137,159.001 420.449,158.993Z" style="fill:rgb(196,196,196);fill-rule:nonzero;"/>
                <path d="M420.454,158.054C418.25,158.043 416.448,159.827 416.437,162.03C416.425,164.234 418.209,166.036 420.413,166.047C422.616,166.058 424.418,164.274 424.429,162.071C424.441,159.867 422.657,158.065 420.454,158.054ZM420.449,158.993C422.137,159.001 423.5,160.377 423.491,162.066C423.482,163.755 422.106,165.117 420.417,165.108C418.729,165.1 417.367,163.724 417.375,162.035C417.384,160.346 418.76,158.984 420.449,158.993Z" style="fill:rgb(34,30,31);fill-rule:nonzero;"/>
                <path d="M360.829,170.482C361.671,170.487 362.358,169.807 362.362,168.965C362.366,168.123 361.687,167.436 360.844,167.432C360.001,167.427 359.315,168.107 359.311,168.949C359.307,169.792 359.986,170.478 360.829,170.482Z" style="fill:rgb(196,196,196);fill-rule:nonzero;"/>
                <path d="M360.849,166.493C359.491,166.486 358.379,167.586 358.373,168.944C358.366,170.303 359.465,171.414 360.824,171.421C362.182,171.428 363.293,170.328 363.3,168.97C363.307,167.611 362.208,166.5 360.849,166.493ZM360.844,167.432C361.687,167.436 362.367,168.123 362.362,168.965C362.358,169.807 361.671,170.487 360.829,170.482C359.986,170.478 359.307,169.792 359.311,168.949C359.315,168.107 360.001,167.427 360.844,167.432Z" style="fill:rgb(34,30,31);fill-rule:nonzero;"/>
                <path d="M363.254,178.875C362.302,178.87 361.527,179.638 361.522,180.591C361.517,181.543 362.285,182.319 363.237,182.324C364.189,182.329 364.965,181.561 364.97,180.608C364.975,179.656 364.207,178.88 363.254,178.875Z" style="fill:rgb(196,196,196);fill-rule:nonzero;"/>
                <path d="M363.259,177.937C361.792,177.929 360.59,179.118 360.583,180.586C360.576,182.054 361.764,183.255 363.232,183.262C364.701,183.27 365.901,182.082 365.909,180.613C365.917,179.145 364.728,177.944 363.259,177.937ZM363.254,178.875C364.207,178.88 364.975,179.656 364.97,180.608C364.965,181.561 364.189,182.329 363.237,182.324C362.285,182.319 361.517,181.543 361.522,180.591C361.527,179.638 362.302,178.871 363.254,178.875Z" style="fill:rgb(34,30,31);fill-rule:nonzero;"/>
                <path d="M390.614,199.858C389.869,199.854 389.261,200.456 389.257,201.201C389.253,201.947 389.855,202.554 390.6,202.558C391.345,202.562 391.953,201.96 391.957,201.215C391.96,200.47 391.359,199.862 390.614,199.858Z" style="fill:rgb(196,196,196);fill-rule:nonzero;"/>
                <path d="M390.619,198.92C389.357,198.914 388.325,199.935 388.319,201.196C388.312,202.458 389.333,203.49 390.595,203.496C391.857,203.503 392.888,202.481 392.895,201.22C392.902,199.958 391.88,198.926 390.619,198.92ZM390.614,199.858C391.359,199.862 391.96,200.47 391.957,201.215C391.953,201.96 391.345,202.562 390.6,202.558C389.855,202.554 389.253,201.946 389.257,201.201C389.261,200.456 389.869,199.854 390.614,199.858Z" style="fill:rgb(34,30,31);fill-rule:nonzero;"/>
                <path d="M519.614,199.52C518.318,199.513 517.261,200.559 517.255,201.854C517.249,203.15 518.293,204.206 519.589,204.213C520.885,204.22 521.942,203.174 521.948,201.878C521.955,200.583 520.909,199.526 519.614,199.52Z" style="fill:rgb(196,196,196);fill-rule:nonzero;"/>
                <path d="M519.619,198.581C517.807,198.572 516.326,200.038 516.315,201.85C516.307,203.661 517.773,205.142 519.584,205.151C521.396,205.161 522.877,203.694 522.886,201.883C522.896,200.072 521.43,198.59 519.619,198.581ZM519.614,199.52C520.909,199.526 521.955,200.583 521.948,201.878C521.942,203.174 520.885,204.22 519.589,204.213C518.293,204.206 517.249,203.15 517.255,201.854C517.261,200.559 518.318,199.513 519.614,199.52Z" style="fill:rgb(34,30,31);fill-rule:nonzero;"/>
                <path d="M546.048,99.286C544.558,99.278 543.344,100.479 543.337,101.968C543.33,103.458 544.531,104.672 546.021,104.68C547.51,104.687 548.724,103.486 548.732,101.996C548.74,100.506 547.538,99.293 546.048,99.286Z" style="fill:rgb(196,196,196);fill-rule:nonzero;"/>
                <path d="M546.053,98.347C544.048,98.336 542.409,99.959 542.398,101.964C542.388,103.969 544.011,105.608 546.016,105.618C548.021,105.628 549.66,104.006 549.67,102.001C549.68,99.997 548.058,98.357 546.053,98.347ZM546.048,99.286C547.538,99.293 548.74,100.506 548.732,101.996C548.724,103.486 547.51,104.687 546.021,104.68C544.531,104.672 543.33,103.458 543.337,101.968C543.344,100.479 544.558,99.278 546.048,99.286Z" style="fill:rgb(34,30,31);fill-rule:nonzero;"/>
                <path d="M225.47,267.919C223.854,267.911 222.538,269.213 222.53,270.829C222.521,272.444 223.825,273.76 225.44,273.769C227.055,273.777 228.372,272.474 228.38,270.859C228.388,269.243 227.085,267.927 225.47,267.919Z" style="fill:rgb(196,196,196);fill-rule:nonzero;"/>
                <path d="M225.475,266.98C223.344,266.969 221.602,268.694 221.591,270.824C221.581,272.955 223.305,274.696 225.435,274.708C227.565,274.718 229.308,272.994 229.318,270.863C229.329,268.733 227.605,266.991 225.475,266.98ZM225.47,267.919C227.085,267.927 228.388,269.243 228.38,270.859C228.372,272.474 227.055,273.777 225.44,273.769C223.825,273.76 222.521,272.444 222.53,270.829C222.538,269.213 223.854,267.911 225.47,267.919Z" style="fill:rgb(34,30,31);fill-rule:nonzero;"/>
                <path d="M254.463,238.195C254.468,237.265 253.718,236.507 252.788,236.502C251.857,236.497 251.1,237.248 251.095,238.178C251.09,239.108 251.84,239.866 252.771,239.871C253.701,239.875 254.458,239.125 254.463,238.195Z" style="fill:rgb(196,196,196);fill-rule:nonzero;"/>
                <path d="M252.792,235.563C251.346,235.556 250.164,236.727 250.156,238.173C250.148,239.619 251.319,240.802 252.766,240.809C254.212,240.816 255.395,239.646 255.402,238.2C255.409,236.753 254.239,235.571 252.792,235.563ZM252.788,236.502C253.718,236.507 254.468,237.265 254.463,238.195C254.458,239.125 253.701,239.875 252.771,239.871C251.84,239.866 251.09,239.108 251.095,238.178C251.099,237.248 251.857,236.497 252.788,236.502Z" style="fill:rgb(34,30,31);fill-rule:nonzero;"/>
                <path d="M306.8,235.229C305.272,235.222 304.027,236.454 304.019,237.982C304.011,239.511 305.244,240.756 306.772,240.764C308.301,240.772 309.546,239.539 309.554,238.011C309.562,236.482 308.329,235.237 306.8,235.229Z" style="fill:rgb(196,196,196);fill-rule:nonzero;"/>
                <path d="M306.805,234.291C304.762,234.28 303.091,235.934 303.081,237.978C303.07,240.021 304.724,241.692 306.768,241.703C308.811,241.713 310.482,240.059 310.492,238.016C310.502,235.972 308.849,234.301 306.805,234.291ZM306.8,235.229C308.329,235.237 309.562,236.482 309.554,238.011C309.546,239.539 308.301,240.772 306.772,240.764C305.244,240.756 304.011,239.511 304.019,237.982C304.027,236.454 305.272,235.222 306.8,235.229Z" style="fill:rgb(34,30,31);fill-rule:nonzero;"/>
                <path d="M386.539,272.741C385.206,272.734 384.12,273.81 384.113,275.143C384.106,276.476 385.181,277.562 386.514,277.569C387.847,277.576 388.933,276.5 388.94,275.167C388.947,273.834 387.872,272.748 386.539,272.741Z" style="fill:rgb(196,196,196);fill-rule:nonzero;"/>
                <path d="M386.543,271.802C384.695,271.793 383.183,273.289 383.173,275.138C383.165,276.986 384.661,278.498 386.509,278.507C388.358,278.517 389.87,277.021 389.878,275.172C389.888,273.323 388.392,271.812 386.543,271.802ZM386.539,272.741C387.872,272.748 388.947,273.834 388.94,275.167C388.933,276.5 387.847,277.576 386.514,277.569C385.181,277.562 384.106,276.476 384.113,275.143C384.119,273.809 385.206,272.734 386.539,272.741Z" style="fill:rgb(34,30,31);fill-rule:nonzero;"/>
                <path d="M319.884,211.403C318.905,211.398 318.108,212.188 318.103,213.166C318.098,214.145 318.887,214.942 319.866,214.947C320.844,214.952 321.641,214.163 321.646,213.184C321.651,212.206 320.862,211.408 319.884,211.403Z" style="fill:rgb(196,196,196);fill-rule:nonzero;"/>
                <path d="M319.888,210.465C318.394,210.457 317.172,211.667 317.164,213.161C317.156,214.656 318.366,215.878 319.861,215.885C321.355,215.893 322.577,214.683 322.585,213.189C322.593,211.694 321.383,210.472 319.888,210.465ZM319.884,211.403C320.862,211.408 321.651,212.206 321.646,213.184C321.642,214.163 320.844,214.952 319.866,214.947C318.887,214.942 318.098,214.145 318.103,213.166C318.108,212.188 318.905,211.398 319.884,211.403Z" style="fill:rgb(34,30,31);fill-rule:nonzero;"/>
                <path d="M354.634,53.994C353.463,53.988 352.51,54.932 352.503,56.103C352.498,57.273 353.441,58.227 354.612,58.233C355.783,58.239 356.737,57.295 356.743,56.124C356.749,54.954 355.804,54 354.634,53.994Z" style="fill:rgb(196,196,196);fill-rule:nonzero;"/>
                <path d="M354.639,53.056C352.952,53.047 351.574,54.412 351.565,56.098C351.556,57.784 352.921,59.163 354.607,59.172C356.293,59.18 357.672,57.815 357.681,56.129C357.69,54.443 356.325,53.064 354.639,53.056ZM354.634,53.994C355.804,54 356.749,54.954 356.743,56.124C356.737,57.295 355.783,58.239 354.612,58.233C353.441,58.227 352.498,57.273 352.503,56.103C352.509,54.932 353.463,53.988 354.634,53.994Z" style="fill:rgb(34,30,31);fill-rule:nonzero;"/>
                <path d="M408.863,70.866C407.994,70.861 407.285,71.562 407.281,72.432C407.276,73.301 407.977,74.01 408.846,74.014C409.716,74.019 410.424,73.317 410.429,72.448C410.433,71.579 409.732,70.87 408.863,70.866Z" style="fill:rgb(196,196,196);fill-rule:nonzero;"/>
                <path d="M408.868,69.927C407.482,69.92 406.349,71.041 406.341,72.427C406.334,73.813 407.457,74.946 408.841,74.953C410.227,74.96 411.361,73.838 411.368,72.453C411.375,71.067 410.253,69.934 408.868,69.927ZM408.863,70.866C409.732,70.87 410.433,71.579 410.429,72.448C410.424,73.317 409.716,74.019 408.846,74.014C407.977,74.01 407.276,73.301 407.281,72.432C407.285,71.562 407.994,70.861 408.863,70.866Z" style="fill:rgb(34,30,31);fill-rule:nonzero;"/>
                <path d="M408.797,23.26C410.668,23.27 412.194,21.76 412.203,19.889C412.212,18.018 410.704,16.493 408.832,16.483C406.96,16.473 405.435,17.983 405.425,19.854C405.416,21.726 406.925,23.251 408.797,23.26Z" style="fill:rgb(196,196,196);fill-rule:nonzero;"/>
                <path d="M408.836,15.544C406.451,15.532 404.5,17.463 404.487,19.85C404.475,22.236 406.406,24.187 408.792,24.199C411.178,24.211 413.129,22.28 413.142,19.894C413.154,17.508 411.222,15.557 408.836,15.544ZM408.832,16.483C410.703,16.493 412.212,18.018 412.203,19.889C412.194,21.76 410.668,23.27 408.797,23.26C406.925,23.251 405.416,21.726 405.425,19.854C405.435,17.983 406.96,16.473 408.832,16.483Z" style="fill:rgb(34,30,31);fill-rule:nonzero;"/>
                <path d="M462.684,46.562C461.729,46.557 460.951,47.327 460.946,48.283C460.941,49.238 461.711,50.016 462.667,50.021C463.622,50.026 464.4,49.255 464.405,48.3C464.41,47.345 463.639,46.567 462.684,46.562Z" style="fill:rgb(196,196,196);fill-rule:nonzero;"/>
                <path d="M462.689,45.623C461.218,45.616 460.015,46.807 460.007,48.278C460,49.749 461.191,50.952 462.662,50.959C464.133,50.967 465.336,49.776 465.344,48.305C465.351,46.834 464.161,45.631 462.689,45.623ZM462.684,46.562C463.64,46.567 464.41,47.345 464.405,48.3C464.4,49.255 463.622,50.026 462.667,50.021C461.711,50.016 460.941,49.238 460.946,48.283C460.951,47.327 461.729,46.557 462.684,46.562Z" style="fill:rgb(34,30,31);fill-rule:nonzero;"/>
                <path d="M572.542,229.208C571.308,229.202 570.301,230.198 570.295,231.433C570.289,232.668 571.285,233.674 572.52,233.681C573.754,233.687 574.761,232.691 574.767,231.456C574.774,230.221 573.778,229.215 572.542,229.208Z" style="fill:rgb(196,196,196);fill-rule:nonzero;"/>
                <path d="M572.547,228.27C570.797,228.261 569.366,229.678 569.357,231.428C569.347,233.179 570.764,234.61 572.515,234.619C574.265,234.628 575.697,233.211 575.706,231.46C575.715,229.71 574.298,228.279 572.547,228.27ZM572.542,229.208C573.778,229.215 574.774,230.221 574.767,231.456C574.761,232.691 573.754,233.687 572.52,233.681C571.285,233.674 570.289,232.668 570.295,231.433C570.301,230.198 571.308,229.202 572.542,229.208Z" style="fill:rgb(34,30,31);fill-rule:nonzero;"/>
            </g>
        </g>
    </g>
</svg>
